<?xml version="1.0" encoding="UTF-8" standalone="no"?>
<!-- Generator: Adobe Illustrator 19.0.0, SVG Export Plug-In . SVG Version: 6.00 Build 0)  -->

<svg
   xmlns:dc="http://purl.org/dc/elements/1.1/"
   xmlns:cc="http://creativecommons.org/ns#"
   xmlns:rdf="http://www.w3.org/1999/02/22-rdf-syntax-ns#"
   xmlns:svg="http://www.w3.org/2000/svg"
   xmlns="http://www.w3.org/2000/svg"
   xmlns:sodipodi="http://sodipodi.sourceforge.net/DTD/sodipodi-0.dtd"
   xmlns:inkscape="http://www.inkscape.org/namespaces/inkscape"
   version="1.1"
   id="Layer_1"
   x="0px"
   y="0px"
   viewBox="0 0 512.001 512.001"
   style="enable-background:new 0 0 512.001 512.001;"
   xml:space="preserve"
   sodipodi:docname="icon.svg"
   inkscape:version="0.92.4 (5da689c313, 2019-01-14)"
   inkscape:export-filename="D:\personal\chrome-find-in-select\img\icon-128px.png"
   inkscape:export-xdpi="24.422846"
   inkscape:export-ydpi="24.422846"><metadata
   id="metadata4712"><rdf:RDF><cc:Work
       rdf:about=""><dc:format>image/svg+xml</dc:format><dc:type
         rdf:resource="http://purl.org/dc/dcmitype/StillImage" /></cc:Work></rdf:RDF></metadata><defs
   id="defs4710" /><sodipodi:namedview
   pagecolor="#ffffff"
   bordercolor="#666666"
   borderopacity="1"
   objecttolerance="10"
   gridtolerance="10"
   guidetolerance="10"
   inkscape:pageopacity="0"
   inkscape:pageshadow="2"
   inkscape:window-width="1920"
   inkscape:window-height="1017"
   id="namedview4708"
   showgrid="false"
   inkscape:zoom="0.46093662"
   inkscape:cx="256.00049"
   inkscape:cy="256.00049"
   inkscape:window-x="-8"
   inkscape:window-y="-8"
   inkscape:window-maximized="1"
   inkscape:current-layer="g5471" />






<g
   id="g4677">
</g>
<g
   id="g4679">
</g>
<g
   id="g4681">
</g>
<g
   id="g4683">
</g>
<g
   id="g4685">
</g>
<g
   id="g4687">
</g>
<g
   id="g4689">
</g>
<g
   id="g4691">
</g>
<g
   id="g4693">
</g>
<g
   id="g4695">
</g>
<g
   id="g4697">
</g>
<g
   id="g4699">
</g>
<g
   id="g4701">
</g>
<g
   id="g4703">
</g>
<g
   id="g4705">
</g>
<g
   inkscape:groupmode="layer"
   id="layer2"
   inkscape:label="List"
   style="display:inline"><polygon
     style="fill:#ebba16"
     points="15.894,14.77 16.357,17.474 13.929,16.197 11.501,17.474 11.965,14.77 10,12.855 12.715,12.46 13.929,10 15.143,12.46 17.858,12.855 "
     id="polygon5259"
     transform="matrix(5.8252576,0,0,5.8252576,100.08333,-20.266249)" /><polygon
     style="fill:#ebba16"
     points="15.894,29.853 16.357,32.557 13.929,31.28 11.501,32.557 11.965,29.853 10,27.938 12.715,27.543 13.929,25.083 15.143,27.543 17.858,27.938 "
     id="polygon5261"
     transform="matrix(5.8252576,0,0,5.8252576,100.08333,-20.266249)" /><polygon
     style="fill:#ebba16"
     points="15.894,45.296 16.357,48 13.929,46.723 11.501,48 11.965,45.296 10,43.381 12.715,42.987 13.929,40.526 15.143,42.987 17.858,43.381 "
     id="polygon5263"
     transform="matrix(5.8252576,0,0,5.8252576,100.08333,-20.266249)" /><path
     inkscape:connector-curvature="0"
     style="fill:#7383bf;stroke-width:7.56057453"
     d="M 466.0239,72.937872 H 234.7256 c -5.41668,0 -9.81282,-2.60389 -9.81282,-5.825257 0,-3.221368 4.39614,-5.825258 9.81282,-5.825258 h 231.2983 c 5.41668,0 9.81284,2.60389 9.81284,5.825258 0,3.221367 -4.39616,5.825257 -9.81284,5.825257 z"
     id="path5265" /><path
     inkscape:connector-curvature="0"
     style="fill:#7383bf;stroke-width:7.56057453"
     d="M 466.0239,160.31674 H 234.7256 c -5.41668,0 -9.81282,-2.60389 -9.81282,-5.82526 0,-3.22137 4.39614,-5.82526 9.81282,-5.82526 h 231.2983 c 5.41668,0 9.81284,2.60389 9.81284,5.82526 0,3.22137 -4.39616,5.82526 -9.81284,5.82526 z"
     id="path5267" /><path
     inkscape:connector-curvature="0"
     style="fill:#7383bf;stroke-width:7.56057453"
     d="M 466.0239,247.6956 H 234.7256 c -5.41668,0 -9.81282,-2.60389 -9.81282,-5.82526 0,-3.22136 4.39614,-5.82525 9.81282,-5.82525 h 231.2983 c 5.41668,0 9.81284,2.60389 9.81284,5.82525 0,3.22137 -4.39616,5.82526 -9.81284,5.82526 z"
     id="path5269" /><g
     id="g5271"
     transform="matrix(5.8252576,0,0,5.8252576,100.08333,-20.266249)">
</g><g
     id="g5273"
     transform="matrix(5.8252576,0,0,5.8252576,100.08333,-20.266249)">
</g><g
     id="g5275"
     transform="matrix(5.8252576,0,0,5.8252576,100.08333,-20.266249)">
</g><g
     id="g5277"
     transform="matrix(5.8252576,0,0,5.8252576,100.08333,-20.266249)">
</g><g
     id="g5279"
     transform="matrix(5.8252576,0,0,5.8252576,100.08333,-20.266249)">
</g><g
     id="g5281"
     transform="matrix(5.8252576,0,0,5.8252576,100.08333,-20.266249)">
</g><g
     id="g5283"
     transform="matrix(5.8252576,0,0,5.8252576,100.08333,-20.266249)">
</g><g
     id="g5285"
     transform="matrix(5.8252576,0,0,5.8252576,100.08333,-20.266249)">
</g><g
     id="g5287"
     transform="matrix(5.8252576,0,0,5.8252576,100.08333,-20.266249)">
</g><g
     id="g5289"
     transform="matrix(5.8252576,0,0,5.8252576,100.08333,-20.266249)">
</g><g
     id="g5291"
     transform="matrix(5.8252576,0,0,5.8252576,100.08333,-20.266249)">
</g><g
     id="g5293"
     transform="matrix(5.8252576,0,0,5.8252576,100.08333,-20.266249)">
</g><g
     id="g5295"
     transform="matrix(5.8252576,0,0,5.8252576,100.08333,-20.266249)">
</g><g
     id="g5297"
     transform="matrix(5.8252576,0,0,5.8252576,100.08333,-20.266249)">
</g><g
     id="g5299"
     transform="matrix(5.8252576,0,0,5.8252576,100.08333,-20.266249)">
</g></g><g
   inkscape:groupmode="layer"
   id="layer1"
   inkscape:label="Zoom"
   style="display:inline"><g
     id="g5471"
     transform="translate(-4,-2)"><rect
       id="rect4665"
       height="106.26698"
       width="17.066835"
       style="fill:#ece7ea;stroke-width:0.9999904"
       transform="rotate(-135)"
       y="-106.26176"
       x="-370.58954" /><circle
       id="circle4667"
       r="136.017"
       cy="157.811"
       cx="354.19101"
       style="fill:none;fill-opacity:1;stroke:#80d8f1;stroke-width:25.85710526;stroke-miterlimit:4;stroke-dasharray:none;stroke-opacity:1" /><circle
       id="circle4669"
       r="124.018"
       cy="157.811"
       cx="354.19101"
       style="fill:#ece7ea;fill-opacity:0.58878503" /><path
       id="path4671"
       d="m 290.877,103.028 c -2.183,0 -4.367,-0.833 -6.034,-2.499 -3.333,-3.333 -3.333,-8.736 0,-12.067 18.523,-18.524 43.153,-28.727 69.35,-28.727 26.197,0 50.826,10.201 69.349,28.726 3.333,3.333 3.333,8.736 0,12.067 -3.333,3.331 -8.736,3.333 -12.067,-0.001 -15.302,-15.301 -35.644,-23.726 -57.283,-23.726 -21.639,0 -41.982,8.426 -57.282,23.727 -1.666,1.666 -3.85,2.5 -6.033,2.5 z"
       style="fill:#ffffff"
       inkscape:connector-curvature="0" /><path
       id="path4673"
       d="M 188.403,373.254 56.765,504.892 C 43.056,518.601 28.831,510.588 15.122,496.879 1.413,483.17 -6.6,468.945 7.109,455.236 l 131.638,-131.638 40.918,8.737 z"
       style="fill:#1b4145"
       inkscape:connector-curvature="0" /><path
       id="path4675"
       d="m 204.436,357.219 -16.035,16.035 -49.656,-49.656 16.035,-16.035 c 13.709,-13.709 35.947,-13.709 49.656,0 13.71,13.71 13.71,35.947 0,49.656 z"
       style="fill:#c2b8b9"
       inkscape:connector-curvature="0" /></g></g></svg>